#!OML:ASF H:\ManfredETheater\Project 1\Capture day 1\Session 1\subject.ASF
:FULLY-SPECIFIED
:DEGREES
287
root 2.38438 16.0538 -14.272 -156.457 2.0142 184.096
lowerback 19.184 -0.350853 5.454
upperback -0.0227875 1.61342 4.05745
thorax -10.8372 0.763767 0.884877
lowerneck -19.9017 0.186255 -0.120389
upperneck -2.47766 1.41554 -4.6319
head 2.70172 0.90878 -1.38291
rclavicle -7.55382e-015 -3.81667e-014
rhumerus -26.5584 19.1787 -92.7652
rradius 108.09
rwrist -15.1501
rhand -27.7372 14.8263
rfingers 7.12502
rthumb -1.13205 -15.1504
lclavicle -7.55382e-015 -3.81667e-014
lhumerus -56.9952 -6.8159 92.9524
lradius 78.4198
lwrist 12.3018
lhand -28.1431 -7.13408
lfingers 7.12502
lthumb -1.52416 22.8402
rfemur -31.8316 -8.95374 31.9016
rtibia 62.6236
rfoot -30.2212 -3.17212
rtoes -22.7474
lfemur -59.3652 5.6021 -14.4883
ltibia 108.12
lfoot -3.27747 0.674097
ltoes 22.0141
288
root 2.40545 16.0703 -14.8901 -156.514 1.86797 184.247
lowerback 18.5946 -0.231041 5.73676
upperback -0.152493 1.7526 3.9143
thorax -10.6325 0.803283 0.533048
lowerneck -19.926 0.0904367 -0.0496725
upperneck -1.83605 1.22184 -4.5001
head 2.92787 0.775645 -1.37263
rclavicle 1.51076e-014 1.74931e-014
rhumerus -24.6312 20.5667 -92.1603
rradius 111.68
rwrist -15.0413
rhand -27.5022 15.1043
rfingers 7.12502
rthumb -0.905122 -14.8736
lclavicle 1.51076e-014 1.74931e-014
lhumerus -60.873 -7.51161 92.973
lradius 80.5303
lwrist 13.2149
lhand -27.7037 -6.96032
lfingers 7.12502
lthumb -1.09978 23.0166
rfemur -28.3149 -9.19854 31.4006
rtibia 60.3771
rfoot -29.1424 -2.15942
rtoes -24.0604
lfemur -63.0455 5.33189 -14.2747
ltibia 107.652
lfoot -4.96927 0.0164985
ltoes 19.3002
289
root 2.42841 16.0955 -15.5256 -156.625 1.63111 184.373
lowerback 17.937 -0.0789912 6.0269
upperback -0.266758 1.92822 3.77126
thorax -10.3671 0.863043 0.171541
lowerneck -19.9096 -0.0933242 -0.0475011
upperneck -1.19246 0.923843 -4.32089
head 3.14489 0.595164 -1.34398
rclavicle -4.37326e-015 -5.56597e-015
rhumerus -22.8219 21.6149 -91.1597
rradius 115.236
rwrist -14.8593
rhand -27.2607 15.401
rfingers 7.12502
rthumb -0.671893 -14.5777
lclavicle -4.37326e-015 -5.56597e-015
lhumerus -64.6439 -8.18781 93.0209
lradius 82.7631
lwrist 13.9418
lhand -27.3143 -6.74029
lfingers 7.12502
lthumb -0.723614 23.2382
rfemur -24.5958 -9.38898 30.8638
rtibia 57.7436
rfoot -27.4569 -1.01846
rtoes -25.1585
lfemur -66.3077 4.93087 -14.0609
ltibia 106.497
lfoot -6.61492 -0.793909
ltoes 16.1537
290
root 2.4527 16.1281 -16.1778 -156.8 1.30565 184.499
lowerback 17.2187 0.094827 6.3423
upperback -0.352482 2.12999 3.62753
thorax -10.0295 0.938804 -0.206088
lowerneck -19.8532 -0.344066 -0.0895514
upperneck -0.558088 0.542875 -4.09081
head 3.35012 0.378374 -1.29826
rclavicle -2.66371e-014 -6.20208e-014
rhumerus -21.1022 22.3103 -89.8131
rradius 118.675
rwrist -14.7049
rhand -26.9642 15.713
rfingers 7.12502
rthumb -0.385477 -14.2664
lclavicle -2.66371e-014 -6.20208e-014
lhumerus -68.2547 -8.79912 93.0243
lradius 85.0068
lwrist 14.5611
lhand -27.0133 -6.52394
lfingers 7.12502
lthumb -0.43292 23.4554
rfemur -20.6916 -9.45389 30.3302
rtibia 54.7297
rfoot -25.04 0.189055
rtoes -26.0057
lfemur -69.1067 4.44937 -13.835
ltibia 104.715
lfoot -8.24613 -1.67266
ltoes 12.7355
291
root 2.47784 16.1673 -16.8457 -157.052 0.889455 184.647
lowerback 16.4703 0.275496 6.67803
upperback -0.402277 2.34194 3.49998
thorax -9.63046 1.02514 -0.573413
lowerneck -20.0347 -0.658374 -0.269185
upperneck 0.57072 0.11611 -3.823
head 3.31036 0.127139 -1.12057
rclavicle 1.51076e-014 5.32743e-014
rhumerus -19.4897 22.6867 -88.1965
rradius 121.899
rwrist -14.5267
rhand -26.6686 16.0412
rfingers 7.12502
rthumb -0.100006 -13.9385
lclavicle 1.51076e-014 5.32743e-014
lhumerus -71.6669 -9.2878 92.9404
lradius 87.1933
lwrist 15.1808
lhand -26.7868 -6.38108
lfingers 7.12502
lthumb -0.214163 23.5986
rfemur -16.6384 -9.3331 29.8503
rtibia 51.3748
rfoot -21.771 1.39308
rtoes -26.4077
lfemur -71.403 3.92119 -13.5907
ltibia 102.376
lfoot -9.84487 -2.56989
ltoes 9.17739
292
root 2.50362 16.2112 -17.5268 -157.363 0.409476 184.847
lowerback 15.6968 0.459839 7.0273
upperback -0.417999 2.55973 3.40079
thorax -9.1766 1.12129 -0.911583
lowerneck -19.9509 -0.228384 -0.623136
upperneck 1.2667 -0.522354 -3.49299
head 3.50102 -0.725978 -1.04944
rclavicle -2.14687e-014 -4.29375e-014
rhumerus -18.0108 22.7716 -86.4053
rradius 124.835
rwrist -14.3897
rhand -26.3504 16.3768
rfingers 7.12502
rthumb 0.207285 -13.6028
lclavicle -2.14687e-014 -4.29375e-014
lhumerus -74.8428 -9.6157 92.7332
lradius 89.2754
lwrist 15.8616
lhand -26.5873 -6.35139
lfingers 7.12502
lthumb -0.0214449 23.6284
rfemur -12.521 -8.92936 29.4917
rtibia 47.6919
rfoot -17.4596 2.41168
rtoes -26.2231
lfemur -73.2252 3.41536 -13.3361
ltibia 99.5521
lfoot -11.3408 -3.45263
ltoes 5.61466
293
root 2.52845 16.2481 -18.2153 -157.752 -0.142477 185.076
lowerback 14.944 0.623486 7.3698
upperback -0.397603 2.75084 3.3312
thorax -8.69561 1.21197 -1.20153
lowerneck -19.8872 -0.625014 -0.693296
upperneck 1.91104 -0.964704 -3.1286
head 3.68553 -0.898409 -0.963769
rclavicle 2.38542e-015 1.11319e-014
rhumerus -16.7071 22.6276 -84.5503
rradius 127.405
rwrist -14.2824
rhand -26.0468 16.6873
rfingers 7.12502
rthumb 0.500568 -13.2919
lclavicle 2.38542e-015 1.11319e-014
lhumerus -77.7503 -9.75931 92.3821
lradius 91.2145
lwrist 16.5355
lhand -26.3963 -6.44978
lfingers 7.12502
lthumb 0.162962 23.5299
rfemur -8.41169 -8.20567 29.283
rtibia 43.7755
rfoot -12.0646 2.97017
rtoes -25.3488
lfemur -74.6423 2.91032 -13.1126
ltibia 96.3731
lfoot -12.6223 -4.29686
ltoes 2.23201
294
root 2.55414 16.2951 -18.914 -158.198 -0.733864 185.319
lowerback 14.2284 0.764228 7.6721
upperback -0.34955 2.90707 3.28796
thorax -8.20956 1.29278 -1.42837
lowerneck -19.8647 -1.00479 -0.777804
upperneck 2.57029 -1.39207 -2.73507
head 3.88367 -1.06325 -0.866969
rclavicle 1.11319e-014 6.44062e-014
rhumerus -15.6164 22.3148 -82.7368
rradius 129.542
rwrist -14.2101
rhand -25.7565 16.9475
rfingers 7.12502
rthumb 0.780903 -13.0309
lclavicle 1.11319e-014 6.44062e-014
lhumerus -80.3424 -9.71482 91.8798
lradius 92.9766
lwrist 17.0974
lhand -26.1795 -6.66834
lfingers 7.12502
lthumb 0.372335 23.3111
rfemur -4.38996 -7.09587 29.2647
rtibia 39.6911
rfoot -5.65953 2.74715
rtoes -23.6894
lfemur -75.5485 2.43797 -12.9599
ltibia 92.8047
lfoot -13.6491 -5.11705
ltoes -0.888957
